<svg width="345" height="298" viewBox="0 0 345 298" fill="none" xmlns="http://www.w3.org/2000/svg">
<g id="Group-1">
<g id="undraw_dev_productivity_umsq 1">
<g clip-path="url(#clip0)">
<path id="Vector" d="M188.314 82.9169C205.859 82.9169 220.081 68.6944 220.081 51.15C220.081 33.6056 205.859 19.383 188.314 19.383C170.77 19.383 156.547 33.6056 156.547 51.15C156.547 68.6944 170.77 82.9169 188.314 82.9169Z" fill="#A0616A"/>
<path id="Vector_2" d="M164.604 67.0335C164.604 67.0335 170.589 112.152 161.381 117.216C152.174 122.28 216.168 122.741 216.168 122.741C216.168 122.741 201.896 83.6075 208.341 71.6373L164.604 67.0335Z" fill="#A0616A"/>
<path id="Vector_3" d="M262.897 122.969L257.575 147.204L246.322 198.477L245.985 201.285L242.101 233.792L239.518 255.387L237.785 269.893C227.253 275.306 219.62 279.043 219.62 279.043C219.62 279.043 218.964 275.751 217.905 271.539C210.514 273.755 196.837 277.432 185.247 278.166C189.467 282.871 191.407 287.29 188.776 290.551C180.836 300.383 148.057 279.786 136.591 272.105C136.325 273.944 136.223 275.804 136.289 277.661L127.515 270.913L128.384 255.387L129.848 229.118L131.688 196.174C131.108 194.764 130.622 193.316 130.233 191.841C127.546 182.286 124.284 163.205 121.783 147.204C119.77 134.326 118.258 123.444 117.938 121.129C117.895 120.826 117.873 120.671 117.873 120.671L166.442 99.2094C169.894 107.214 186.011 109.62 186.011 109.62C199.364 108.7 209.831 101.659 209.831 101.659L262.897 122.969Z" fill="#D0CDE1"/>
<path id="Vector_4" d="M223.305 269.837C223.305 269.837 221.249 270.541 217.905 271.539C210.514 273.756 196.837 277.432 185.247 278.166C175.268 278.805 166.835 277.268 165.293 270.757C164.632 267.958 165.569 265.656 167.613 263.764C173.712 258.109 189.644 256.083 202.28 255.387C205.848 255.193 209.149 255.102 211.896 255.068C216.562 255.007 219.62 255.102 219.62 255.102L219.694 255.387L223.305 269.837Z" fill="#A0616A"/>
<path id="Vector_5" d="M161.887 21.1014L155.948 18.7235C155.948 18.7235 168.367 5.05063 185.646 6.23963L180.786 0.88932C180.786 0.88932 192.665 -3.86641 203.465 8.61746C209.142 15.1799 215.71 22.8938 219.805 31.5834H226.166L223.511 37.429L232.803 43.2746L223.265 42.2246C223.834 45.4258 223.921 48.6938 223.524 51.9207C223.115 55.1486 221.468 58.0912 218.93 60.1276V60.1276C218.93 60.1276 211.564 44.8802 211.564 42.5023V48.447C211.564 48.447 205.624 43.0968 205.624 39.53L202.385 43.6913L200.765 37.1521L180.786 43.6913L184.026 38.3411L171.607 40.1245L176.466 33.5853C176.466 33.5853 162.427 41.3134 161.887 47.8526C161.347 54.3918 157.238 60.588 157.238 60.588C157.238 60.588 146.228 30.0184 161.887 21.1014Z" fill="#2F2E41"/>
<path id="Vector_6" d="M297.426 234.384C294.191 237.892 286.173 243.175 276.453 248.894C272.837 251.02 268.988 253.21 265.061 255.387C255.691 260.584 245.881 265.733 237.785 269.893C227.253 275.306 219.62 279.043 219.62 279.043C219.62 279.043 218.964 275.751 217.905 271.539C216.488 265.902 214.354 258.614 212.129 255.387C212.052 255.275 211.974 255.171 211.896 255.068C211.248 254.217 210.596 253.72 209.952 253.72L242.101 233.792L255.994 225.178L245.985 201.285L233.431 171.313L241.008 147.204L248.624 122.969H262.897C262.897 122.969 267.623 133.285 273.667 147.67C274.569 149.822 275.503 152.064 276.453 154.379C288.886 184.618 304.386 226.846 297.426 234.384Z" fill="#D0CDE1"/>
<path id="Vector_7" d="M188.776 290.551C180.836 300.383 148.057 279.786 136.591 272.105C134.095 270.433 132.609 269.375 132.609 269.375L143.097 255.387L146.419 250.959C146.419 250.959 149.391 252.536 153.785 255.102C153.945 255.197 154.104 255.292 154.269 255.387C158.057 257.612 162.813 260.519 167.613 263.764C174.235 268.243 180.931 273.354 185.247 278.166C189.467 282.871 191.407 287.29 188.776 290.551Z" fill="#A0616A"/>
<path id="Vector_8" d="M153.785 255.102C152.612 255.098 151.442 255.193 150.286 255.387C140.354 257.094 137.425 266.083 136.591 272.105C136.324 273.944 136.223 275.804 136.289 277.661L127.515 270.913L124.319 268.455C116.625 265.772 109.769 261.007 103.825 255.387C98.6681 250.425 94.0425 244.94 90.0227 239.019C86.0189 233.184 82.4497 227.062 79.3439 220.703C78.4773 218.928 78.0115 216.985 77.9794 215.01C77.9473 213.036 78.3497 211.078 79.1582 209.277L90.0227 185.063L105.903 149.675C106.019 148.832 106.148 148.009 106.287 147.204C109.436 129.146 117.873 121.129 117.873 121.129H124.318L128.63 147.204L133.986 179.599L130.232 191.841L121.558 220.115L129.848 229.118L153.785 255.102Z" fill="#D0CDE1"/>
<path id="Vector_9" d="M161.079 179.625L166.589 186.053C168.637 185.663 170.774 185.204 172.976 184.689L171.394 179.625L175.263 184.139C198.59 178.402 227.502 167.248 227.502 167.248C227.502 167.248 196.288 169.536 172.982 164.445C162.67 162.192 152.06 167.303 147.828 176.973C145.369 182.594 145.755 187.463 154.478 187.463C157.426 187.413 160.365 187.136 163.271 186.636L161.079 179.625Z" fill="white"/>
<path id="Vector_10" d="M286.691 285.281V287.903C286.693 288.623 286.559 289.336 286.298 290.007C286.182 290.306 286.042 290.595 285.879 290.871C285.364 291.735 284.634 292.451 283.759 292.948C282.884 293.444 281.895 293.705 280.89 293.705H87.9838C86.9779 293.705 85.9891 293.444 85.1144 292.948C84.2397 292.451 83.5091 291.735 82.9943 290.871C82.8314 290.595 82.6913 290.306 82.5753 290.007C82.314 289.336 82.1807 288.623 82.1821 287.903V285.281C82.1819 284.519 82.3319 283.765 82.6234 283.061C82.9148 282.357 83.3422 281.717 83.881 281.178C84.4197 280.639 85.0594 280.212 85.7634 279.921C86.4673 279.629 87.2219 279.479 87.9838 279.479H99.1032V278.257C99.1032 278.225 99.1094 278.194 99.1216 278.164C99.1337 278.135 99.1515 278.108 99.174 278.086C99.1965 278.063 99.2231 278.045 99.2525 278.033C99.2819 278.021 99.3134 278.015 99.3452 278.015H105.147C105.179 278.015 105.21 278.021 105.239 278.033C105.269 278.045 105.296 278.063 105.318 278.086C105.34 278.108 105.358 278.135 105.37 278.164C105.383 278.194 105.389 278.225 105.389 278.257V279.479H109.013V278.257C109.013 278.225 109.019 278.194 109.031 278.164C109.044 278.135 109.061 278.108 109.084 278.086C109.106 278.063 109.133 278.045 109.162 278.033C109.192 278.021 109.223 278.015 109.255 278.015H115.057C115.088 278.015 115.12 278.021 115.149 278.033C115.179 278.045 115.205 278.063 115.228 278.086C115.25 278.108 115.268 278.135 115.28 278.164C115.292 278.194 115.299 278.225 115.299 278.257V279.479H118.927V278.257C118.927 278.225 118.933 278.194 118.946 278.164C118.958 278.135 118.976 278.108 118.998 278.086C119.021 278.063 119.047 278.045 119.077 278.033C119.106 278.021 119.137 278.015 119.169 278.015H124.971C125.003 278.015 125.034 278.021 125.064 278.033C125.093 278.045 125.12 278.063 125.142 278.086C125.165 278.108 125.182 278.135 125.194 278.164C125.207 278.194 125.213 278.225 125.213 278.257V279.479H128.837V278.257C128.837 278.225 128.843 278.194 128.856 278.164C128.868 278.135 128.885 278.108 128.908 278.086C128.93 278.063 128.957 278.045 128.986 278.033C129.016 278.021 129.047 278.015 129.079 278.015H134.881C134.913 278.015 134.944 278.021 134.973 278.033C135.003 278.045 135.029 278.063 135.052 278.086C135.074 278.108 135.092 278.135 135.104 278.164C135.117 278.194 135.123 278.225 135.123 278.257V279.479H138.747V278.257C138.747 278.225 138.753 278.194 138.765 278.164C138.778 278.135 138.795 278.108 138.818 278.086C138.84 278.063 138.867 278.045 138.896 278.033C138.926 278.021 138.957 278.015 138.989 278.015H144.791C144.822 278.015 144.854 278.021 144.883 278.033C144.913 278.045 144.939 278.063 144.962 278.086C144.984 278.108 145.002 278.135 145.014 278.164C145.026 278.194 145.033 278.225 145.033 278.257V279.479H148.661V278.257C148.661 278.225 148.667 278.194 148.68 278.164C148.692 278.135 148.71 278.108 148.732 278.086C148.754 278.063 148.781 278.045 148.811 278.033C148.84 278.021 148.871 278.015 148.903 278.015H154.705C154.737 278.015 154.768 278.021 154.797 278.033C154.827 278.045 154.854 278.063 154.876 278.086C154.898 278.108 154.916 278.135 154.928 278.164C154.941 278.194 154.947 278.225 154.947 278.257V279.479H158.571V278.257C158.571 278.225 158.577 278.194 158.589 278.164C158.602 278.135 158.619 278.108 158.642 278.086C158.664 278.063 158.691 278.045 158.72 278.033C158.75 278.021 158.781 278.015 158.813 278.015H204.259C204.29 278.015 204.322 278.021 204.351 278.033C204.381 278.045 204.407 278.063 204.43 278.086C204.452 278.108 204.47 278.135 204.482 278.164C204.494 278.194 204.501 278.225 204.5 278.257V279.479H208.129V278.257C208.129 278.225 208.135 278.194 208.147 278.164C208.16 278.135 208.177 278.108 208.2 278.086C208.222 278.063 208.249 278.045 208.278 278.033C208.308 278.021 208.339 278.015 208.371 278.015H214.173C214.237 278.016 214.298 278.041 214.343 278.086C214.388 278.132 214.414 278.193 214.415 278.257V279.479H218.039V278.257C218.039 278.225 218.045 278.194 218.057 278.164C218.07 278.135 218.087 278.108 218.11 278.086C218.132 278.063 218.159 278.045 218.188 278.033C218.218 278.021 218.249 278.015 218.281 278.015H224.083C224.114 278.015 224.146 278.021 224.175 278.033C224.205 278.045 224.231 278.063 224.254 278.086C224.276 278.108 224.294 278.135 224.306 278.164C224.318 278.194 224.325 278.225 224.325 278.257V279.479H227.949V278.257C227.949 278.225 227.955 278.194 227.967 278.164C227.979 278.135 227.997 278.108 228.02 278.086C228.042 278.063 228.069 278.045 228.098 278.033C228.128 278.021 228.159 278.015 228.191 278.015H233.993C234.024 278.015 234.056 278.021 234.085 278.033C234.115 278.045 234.141 278.063 234.164 278.086C234.186 278.108 234.204 278.135 234.216 278.164C234.228 278.194 234.235 278.225 234.234 278.257V279.479H237.863V278.257C237.863 278.225 237.869 278.194 237.882 278.164C237.894 278.135 237.911 278.108 237.934 278.086C237.956 278.063 237.983 278.045 238.012 278.033C238.042 278.021 238.073 278.015 238.105 278.015H243.907C243.97 278.016 244.031 278.042 244.075 278.087C244.12 278.132 244.145 278.193 244.144 278.257V279.479H247.773V278.257C247.773 278.225 247.779 278.194 247.791 278.164C247.804 278.135 247.821 278.108 247.844 278.086C247.866 278.063 247.893 278.045 247.922 278.033C247.952 278.021 247.983 278.015 248.015 278.015H253.817C253.848 278.015 253.88 278.021 253.909 278.033C253.939 278.045 253.965 278.063 253.988 278.086C254.01 278.108 254.028 278.135 254.04 278.164C254.052 278.194 254.059 278.225 254.059 278.257V279.479H257.683V278.257C257.683 278.225 257.689 278.194 257.701 278.164C257.713 278.135 257.731 278.108 257.754 278.086C257.776 278.063 257.803 278.045 257.832 278.033C257.862 278.021 257.893 278.015 257.925 278.015H263.727C263.758 278.015 263.79 278.021 263.819 278.033C263.849 278.045 263.875 278.063 263.898 278.086C263.92 278.108 263.938 278.135 263.95 278.164C263.962 278.194 263.969 278.225 263.968 278.257V279.479H280.89C281.651 279.479 282.406 279.629 283.11 279.921C283.814 280.212 284.454 280.639 284.992 281.178C285.531 281.717 285.958 282.357 286.25 283.061C286.541 283.765 286.691 284.519 286.691 285.281V285.281Z" fill="#3F3D56"/>
<path id="Vector_11" d="M342.785 290.007H26.1356V290.871H342.785V290.007Z" fill="#3F3D56"/>
<path id="Vector_12" d="M271.159 174.851H199.257V173.369H166.654V174.851H94.4553C93.1654 174.851 91.9283 175.364 91.0162 176.276C90.1041 177.188 89.5917 178.425 89.5917 179.715V278.171C89.5917 279.461 90.1041 280.698 91.0162 281.61C91.9283 282.522 93.1654 283.034 94.4553 283.034H271.159C272.448 283.034 273.686 282.522 274.598 281.61C275.51 280.698 276.022 279.461 276.022 278.171V179.715C276.022 179.076 275.896 178.444 275.652 177.854C275.408 177.264 275.049 176.727 274.598 176.276C274.146 175.824 273.61 175.466 273.02 175.222C272.43 174.977 271.797 174.851 271.159 174.851V174.851Z" fill="#3F3D56"/>
<path id="Vector_13" d="M182.948 220.024C188.913 220.024 193.748 215.189 193.748 209.225C193.748 203.26 188.913 198.425 182.948 198.425C176.984 198.425 172.149 203.26 172.149 209.225C172.149 215.189 176.984 220.024 182.948 220.024Z" stroke="#D0CDE1" stroke-width="2" stroke-miterlimit="10"/>
<path id="Vector_14" d="M179.492 223.912C185.457 223.912 190.292 219.077 190.292 213.113C190.292 207.148 185.457 202.313 179.492 202.313C173.528 202.313 168.693 207.148 168.693 213.113C168.693 219.077 173.528 223.912 179.492 223.912Z" fill="#D0CDE1"/>
<path id="Vector_15" d="M46.8478 285.642H34.752V297.738H46.8478V285.642Z" fill="#D0CDE1"/>
<path id="Vector_16" d="M39.5056 276.139V290.826H54.1933V276.139H39.5056ZM53.554 290.187H40.1406V276.778H53.554V290.187Z" fill="#3F3D56"/>
<path id="Vector_17" d="M326.778 285.642H314.682V297.738H326.778V285.642Z" fill="#D0CDE1"/>
<path id="Vector_18" d="M319.436 276.139V290.826H334.124V276.139H319.436ZM333.484 290.187H320.071V276.778H333.484V290.187Z" fill="#3F3D56"/>
<path id="Vector_19" d="M40.8577 99.4069C59.787 99.4069 75.1321 84.0618 75.1321 65.1326C75.1321 46.2033 59.787 30.8582 40.8577 30.8582C21.9285 30.8582 6.58337 46.2033 6.58337 65.1326C6.58337 84.0618 21.9285 99.4069 40.8577 99.4069Z" fill="#D5D5D5"/>
<path id="Vector_20" d="M52.8019 24.4032C49.6985 24.0085 46.5577 24.0085 43.4543 24.4032C36.5405 25.311 30.0323 28.183 24.7018 32.6787C19.3713 37.1743 15.4424 43.1047 13.3812 49.7662C12.4437 52.8021 11.9129 55.9488 11.8024 59.1242C11.7869 59.5656 11.7765 60.0122 11.7765 60.4588C11.7861 70.0969 15.6191 79.3374 22.4343 86.1526C29.2494 92.9678 38.49 96.8008 48.1281 96.8104C48.9019 96.8104 49.6756 96.7844 50.439 96.7377C52.231 96.6252 54.012 96.3788 55.7672 96.0003C64.1486 94.1979 71.6235 89.4916 76.8716 82.7126C82.1197 75.9337 84.8033 67.5182 84.4486 58.9525C84.0938 50.3868 80.7235 42.222 74.9328 35.9002C69.1421 29.5784 61.3036 25.5063 52.8019 24.4032H52.8019ZM59.5061 93.8919H59.5009C56.5733 94.8909 53.5261 95.4969 50.439 95.6939C49.6756 95.7458 48.9018 95.7718 48.1281 95.7718C38.766 95.7603 29.7907 92.0362 23.1707 85.4162C16.5507 78.7962 12.8265 69.8209 12.8151 60.4588C12.8151 60.0122 12.8255 59.5656 12.841 59.1242C13.198 50.0003 17.0705 41.3682 23.6478 35.0349C30.2251 28.7015 38.9973 25.1579 48.1281 25.1458C56.4942 25.1463 64.5884 28.1168 70.9687 33.5282C77.3491 38.9397 81.601 46.4404 82.9671 54.6943C84.3332 62.9481 82.7246 71.4189 78.4281 78.5974C74.1315 85.7759 67.4259 91.196 59.5061 93.8919H59.5061Z" fill="#3F3D56"/>
<path id="Vector_21" d="M48.6474 27.223H47.6088V34.4933H48.6474V27.223Z" fill="#3F3D56"/>
<path id="Vector_22" d="M24.9941 36.5904L24.2596 37.3248L29.4005 42.4657L30.135 41.7312L24.9941 36.5904Z" fill="#3F3D56"/>
<path id="Vector_23" d="M14.8923 59.9395V60.9781H22.1627V59.9395H14.8923Z" fill="#3F3D56"/>
<g id="Group">
<path id="Vector_24" d="M24.2597 83.5928L24.9941 84.3272L30.135 79.1863L29.4006 78.4519L24.2597 83.5928Z" fill="#3F3D56"/>
<path id="Vector_25" d="M66.1212 41.7312L66.8557 42.4657L71.9966 37.3248L71.2621 36.5903L66.1212 41.7312Z" fill="#3F3D56"/>
<path id="Vector_26" d="M74.0936 59.9395V60.9781H81.3639V59.9395H74.0936Z" fill="#3F3D56"/>
<path id="Vector_27" d="M66.8557 78.4519L66.1213 79.1863L71.2622 84.3272L71.9966 83.5928L66.8557 78.4519Z" fill="#3F3D56"/>
<path id="Vector_28" d="M48.6474 86.4242H47.6088V93.6945H48.6474V86.4242Z" fill="#3F3D56"/>
<path id="Vector_29" d="M49.686 58.3815C49.2366 58.0445 48.6899 57.8622 48.1281 57.8622C47.5663 57.8622 47.0196 58.0445 46.5702 58.3815C46.2625 58.6153 46.0092 58.9129 45.8276 59.254C45.5975 59.6932 45.498 60.1891 45.5408 60.683C45.5836 61.177 45.7669 61.6483 46.069 62.0414C46.3712 62.4345 46.7796 62.7329 47.2459 62.9013C47.7122 63.0697 48.217 63.1011 48.7006 62.9917C49.1842 62.8824 49.6264 62.6369 49.9749 62.2842C50.3234 61.9316 50.5637 61.4866 50.6673 61.0017C50.7709 60.5169 50.7336 60.0125 50.5597 59.5482C50.3859 59.0839 50.0827 58.679 49.6861 58.3815H49.686ZM48.1281 62.0167C47.7153 62.0155 47.3197 61.851 47.0278 61.5591C46.7359 61.2672 46.5714 60.8716 46.5702 60.4588C46.5722 60.1437 46.668 59.8364 46.8454 59.576C46.9976 59.3556 47.204 59.1782 47.4448 59.061C47.6856 58.9437 47.9526 58.8906 48.2199 58.9067C48.4872 58.9228 48.7458 59.0076 48.9708 59.153C49.1957 59.2983 49.3794 59.4992 49.504 59.7363C49.6285 59.9733 49.6898 60.2385 49.6819 60.5062C49.674 60.7739 49.5972 61.035 49.4589 61.2643C49.3205 61.4936 49.1254 61.6833 48.8922 61.8151C48.6591 61.947 48.3959 62.0164 48.1281 62.0167V62.0167Z" fill="#3F3D56"/>
<path id="Vector_30" d="M52.8019 15.2789H43.4543V24.6265H52.8019V15.2789Z" fill="#3F3D56"/>
<path id="Vector_31" d="M48.1281 16.8369C55.0114 16.8369 60.5915 14.8606 60.5915 12.4227C60.5915 9.98487 55.0114 8.0086 48.1281 8.0086C41.2447 8.0086 35.6647 9.98487 35.6647 12.4227C35.6647 14.8606 41.2447 16.8369 48.1281 16.8369Z" fill="#3F3D56"/>
<path id="arrow" d="M49.686 40.7251H46.5702V58.3815H49.686V40.7251Z" fill="#3F3D56"/>
<path id="Vector_32" d="M97.63 95.2282H0V96.2668H97.63V95.2282Z" fill="#3F3D56"/>
</g>
<g id="leaf-left">
<path id="Vector_33" d="M65.0551 259.089C65.4582 272.891 57.3937 277.949 47.273 278.244C47.0379 278.251 46.8039 278.255 46.5709 278.257C46.1016 278.261 45.6368 278.253 45.1765 278.234C36.0234 277.854 28.7781 272.995 28.4032 260.159C28.0153 246.875 44.5031 229.616 45.7401 228.339L45.7423 228.338C45.7893 228.289 45.8134 228.265 45.8134 228.265C45.8134 228.265 64.6521 245.288 65.0551 259.089Z" fill="#D0CDE1"/>
<path id="Vector_34" d="M46.5443 276.153L52.9734 266.592L46.5575 277.181L46.5709 278.257C46.1015 278.261 45.6368 278.253 45.1765 278.234L45.4954 264.405L45.4867 264.298L45.4984 264.277L45.5289 262.971L38.4884 252.749L45.5206 261.993L45.5456 262.269L45.7864 251.821L39.7053 241.223L45.8038 249.985L45.7401 228.339L45.7402 228.267L45.7423 228.338L46.146 245.398L51.6882 238.468L46.1641 246.868L46.2851 256.213L51.3851 247.092L46.3038 257.587L46.3712 262.784L53.7879 250.078L46.3937 264.597L46.5443 276.153Z" fill="#3F3D56"/>
</g>
<g id="leaf-right">
<path id="Vector_35" d="M344.986 259.089C345.389 272.891 337.324 277.949 327.203 278.244C326.968 278.251 326.734 278.255 326.501 278.257C326.032 278.261 325.567 278.253 325.107 278.234C315.954 277.854 308.709 272.995 308.334 260.159C307.946 246.875 324.433 229.616 325.671 228.339L325.673 228.338C325.72 228.289 325.744 228.265 325.744 228.265C325.744 228.265 344.583 245.288 344.986 259.089Z" fill="#D0CDE1"/>
<path id="Vector_36" d="M326.475 276.153L332.904 266.592L326.488 277.181L326.501 278.257C326.032 278.261 325.567 278.253 325.107 278.234L325.426 264.405L325.417 264.298L325.429 264.277L325.459 262.971L318.419 252.749L325.451 261.993L325.476 262.269L325.717 251.821L319.636 241.223L325.734 249.985L325.671 228.339L325.671 228.267L325.673 228.338L326.076 245.398L331.619 238.468L326.095 246.868L326.216 256.213L331.316 247.092L326.234 257.587L326.302 262.784L333.718 250.078L326.324 264.597L326.475 276.153Z" fill="#3F3D56"/>
</g>
</g>
</g>
</g>
<defs>
<clipPath id="clip0">
<rect width="345" height="297.738" fill="white"/>
</clipPath>
</defs>
</svg>
