<svg width="552" height="512" viewBox="0 0 552 512" fill="none" xmlns="http://www.w3.org/2000/svg">
<path id="Vector-1" d="M0 198.5C11.6 -22.7 228.167 -102 335 -114L694 -36.5L637.5 221.5C597 251.333 514.9 340.8 510.5 460C506.1 579.2 391.667 596.333 335 590C277.395 579.327 198.275 566.288 141.241 560.49C153.104 591.859 145.788 606.327 94.5 582C40.9536 556.602 77.1539 553.975 141.241 560.49C123.843 514.49 65.2013 432.146 43.4999 382.5C3.48432 290.958 0 239 0 198.5Z" fill="url(#paint0_linear)"/>
<defs>
<linearGradient id="paint0_linear" x1="694" y1="-36.4999" x2="171" y2="415.5" gradientUnits="userSpaceOnUse">
<stop offset="0.170283" stop-color="#8B54FF"/>
<stop offset="1" stop-color="#F09AFE"/>
</linearGradient>
</defs>
</svg>
